<svg width="442" height="433" viewBox="0 0 442 433" fill="none" xmlns="http://www.w3.org/2000/svg">
<path d="M220.766 380.995C315.327 380.995 391.984 376.52 391.984 370.999C391.984 365.478 315.327 361.002 220.766 361.002C126.206 361.002 49.5488 365.478 49.5488 370.999C49.5488 376.52 126.206 380.995 220.766 380.995Z" fill="#F5F5F5"/>
<path d="M308.411 147.751L299.651 144.219C299.651 144.219 288.092 165.297 284.78 166.366C280.277 167.814 270.952 171.841 265.424 172.547C264.673 173.43 263.445 176.177 263.56 177.175C270.987 179.656 287.306 176.362 290.803 173.766C298.759 167.876 308.411 147.751 308.411 147.751Z" fill="#E58A7B"/>
<path d="M311.104 142.956C312.738 148.987 303.89 161.12 303.89 161.12L292.295 154.621C292.295 154.621 294.467 149.632 297.116 144.554C301.364 136.35 309.241 136.077 311.104 142.956Z" fill="#4CAF4F"/>
<path opacity="0.2" d="M311.104 142.956C312.738 148.987 303.89 161.12 303.89 161.12L292.295 154.621C292.295 154.621 294.467 149.632 297.116 144.554C301.364 136.35 309.241 136.077 311.104 142.956Z" fill="black"/>
<path opacity="0.2" d="M296.895 157.217L301.46 159.778L302.264 145.764C299.606 147.804 297.733 153.95 296.895 157.217Z" fill="black"/>
<path d="M303.474 138.417C303.474 138.417 294.45 158.498 299.713 195.887H335.274C335.839 190.429 333.967 163.796 340.74 138.081C336.839 137.319 332.892 136.814 328.924 136.571C323.892 136.28 318.847 136.28 313.815 136.571C310.327 136.925 306.87 137.542 303.474 138.417Z" fill="#4CAF4F"/>
<path opacity="0.2" d="M303.474 138.417C303.474 138.417 294.45 158.498 299.713 195.887H335.274C335.839 190.429 333.967 163.796 340.74 138.081C336.839 137.319 332.892 136.814 328.924 136.571C323.892 136.28 318.847 136.28 313.815 136.571C310.327 136.925 306.87 137.542 303.474 138.417Z" fill="black"/>
<g style="mix-blend-mode:multiply">
<path d="M295.227 371.793C295.174 372.747 308.658 373.515 325.339 373.515C342.02 373.515 355.602 372.747 355.655 371.793C355.708 370.84 342.232 370.08 325.542 370.08C308.852 370.08 295.289 370.849 295.227 371.793Z" fill="#E8ECF1"/>
</g>
<path d="M318.963 346.735L312.656 349.176L318.089 363.211L324.396 360.77L318.963 346.735Z" fill="#E58A7B"/>
<path d="M347.089 365.003H340.439L338.002 349.611H344.651L347.089 365.003Z" fill="#E58A7B"/>
<path d="M339.98 364.234H347.451C347.58 364.235 347.706 364.281 347.804 364.365C347.903 364.449 347.968 364.566 347.989 364.694L348.952 370.601C348.972 370.75 348.96 370.9 348.917 371.044C348.874 371.187 348.8 371.319 348.702 371.431C348.603 371.544 348.481 371.633 348.344 371.694C348.208 371.755 348.059 371.786 347.91 371.785C345.305 371.74 344.051 371.581 340.766 371.581C338.744 371.581 334.584 371.793 331.776 371.793C328.968 371.793 328.783 369.038 329.939 368.782C335.132 367.661 337.145 366.133 338.876 364.649C339.181 364.381 339.574 364.234 339.98 364.234Z" fill="#263238"/>
<path d="M317.903 361.956L324.967 359.89C325.093 359.854 325.228 359.863 325.348 359.914C325.469 359.966 325.568 360.057 325.63 360.172L328.279 365.471C328.34 365.605 328.372 365.751 328.371 365.899C328.37 366.047 328.337 366.193 328.274 366.327C328.211 366.46 328.119 366.579 328.006 366.673C327.892 366.768 327.759 366.837 327.617 366.875C325.047 367.581 323.325 368.014 320.111 368.95C317.894 369.595 315.633 370.645 313.443 371.343C311.925 371.829 308.357 371.846 306.511 371.846C303.783 371.846 303.173 368.968 304.348 368.835C307.306 368.508 307.703 368.659 309.337 367.837C312.01 366.669 314.433 364.996 316.472 362.91C316.857 362.471 317.35 362.142 317.903 361.956Z" fill="#263238"/>
<path d="M266.536 172.512L259.224 169.448L256.213 177.554C259.21 178.011 262.259 178.011 265.255 177.554L266.536 172.512Z" fill="#E58A7B"/>
<path d="M253.784 169.236L253.59 174.623L256.213 177.537L259.224 169.43L253.784 169.236Z" fill="#E58A7B"/>
<path d="M319.829 347.926L313.502 350.369L316.304 357.627L322.631 355.184L319.829 347.926Z" fill="#CF6F64"/>
<path d="M344.651 349.611H338.002L339.265 357.55H345.914L344.651 349.611Z" fill="#CF6F64"/>
<path opacity="0.2" d="M298.582 185.776C298.714 187.374 298.865 189.008 299.059 190.685L325.498 182.102C329.627 180.878 333.215 178.284 335.671 174.746C335.777 172.388 335.909 169.907 336.112 167.319C336.201 166.065 336.307 164.776 336.421 163.469C336.536 162.162 336.695 160.714 336.863 159.319L298.582 185.776Z" fill="black"/>
<path d="M307.219 156.811L306.336 156.705C306.857 152.29 310.151 148.811 313.621 148.899V149.782C310.583 149.72 307.687 152.855 307.219 156.811Z" fill="white"/>
<path d="M311.926 164.962H311.775V164.079C314.813 164.193 317.665 161.023 318.133 157.076L319.017 157.182C318.549 161.5 315.361 164.962 311.926 164.962Z" fill="white"/>
<path d="M328.429 119.554C327.184 124.42 325.718 133.33 328.924 136.571C328.924 136.571 326.681 141.507 317.647 141.507C309.391 141.507 313.815 136.571 313.815 136.571C319.307 135.282 319.405 131.273 318.68 127.476L328.429 119.554Z" fill="#E58A7B"/>
<path d="M324.456 122.787L318.689 127.476C318.868 128.348 318.972 129.235 318.999 130.125C320.685 131.803 324.067 127.555 324.412 125.383C324.587 124.528 324.602 123.647 324.456 122.787Z" fill="#CF6F64"/>
<path d="M308.772 119.493C309.173 120.188 309.714 120.793 310.359 121.27C311.005 121.748 311.742 122.086 312.525 122.266C314.644 122.734 315.704 120.782 315.121 118.822C314.6 117.055 312.861 114.68 310.706 115.086C310.244 115.181 309.812 115.386 309.446 115.682C309.08 115.978 308.79 116.358 308.6 116.79C308.411 117.221 308.328 117.692 308.358 118.162C308.387 118.632 308.53 119.089 308.772 119.493Z" fill="#CF6F64"/>
<path d="M312.278 103.924C308.975 105.434 307.81 118.557 311.96 120.499C316.111 122.442 318.53 101.054 312.278 103.924Z" fill="#263238"/>
<path d="M329.436 112.234C328.641 118.822 328.553 122.698 325.021 126.071C323.926 127.191 322.543 127.986 321.025 128.369C319.507 128.752 317.913 128.708 316.418 128.243C314.924 127.777 313.587 126.907 312.555 125.729C311.524 124.551 310.838 123.111 310.574 121.568C309.505 115.651 310.98 105.876 317.585 103.253C318.973 102.641 320.499 102.411 322.006 102.587C323.512 102.764 324.944 103.34 326.153 104.256C327.362 105.172 328.304 106.395 328.881 107.798C329.459 109.201 329.65 110.732 329.436 112.234Z" fill="#E58A7B"/>
<path d="M318.584 107.333C323.477 106.088 327.071 105.24 325.781 109.311C324.077 114.751 322.028 120.014 324.775 120.252C326.453 120.402 333.87 117.259 332.925 114.071C332.104 111.298 335.575 110.538 336.193 109.134C338.48 104.048 331.936 104.719 333.102 101.628C334.268 98.5375 327.804 93.5571 324.271 96.0385C318.523 100.048 308.659 99.9858 313.842 93.3893C317.56 88.6825 310.928 89.6451 310.928 89.6451C310.928 89.6451 314.937 92.0205 308.191 95.6941C301.056 99.6149 307.599 110.15 318.584 107.333Z" fill="#263238"/>
<path d="M332.033 119.493C331.067 120.89 329.616 121.879 327.962 122.266C325.78 122.734 324.942 120.782 325.763 118.822C326.496 117.055 328.509 114.68 330.593 115.086C332.677 115.492 333.154 117.762 332.033 119.493Z" fill="#E58A7B"/>
<path d="M299.713 195.887C299.713 195.887 293.744 249.312 293.276 269.587C292.799 290.675 313.507 356.472 313.507 356.472L324.104 352.057C324.104 352.057 311.741 291.938 313.507 271.23C315.379 248.65 323.114 195.922 323.114 195.922L299.713 195.887Z" fill="#4CAF4F"/>
<path opacity="0.2" d="M314.547 210.555C309.787 220.427 312.993 239.952 315.571 251.52C316.552 243.352 317.717 234.486 318.821 226.282C318.715 213.672 317.735 203.932 314.547 210.555Z" fill="black"/>
<path d="M323.635 348.56C323.688 348.56 324.889 351.933 324.889 351.933L312.667 357.073L310.742 353.488L323.635 348.56Z" fill="#4CAF4F"/>
<path d="M312.332 195.887C312.332 195.887 316.897 246.698 319.918 265.728C323.238 286.578 336.254 356.013 336.254 356.013H348.432C348.432 356.013 341.138 288.264 339.76 267.618C338.259 245.224 335.274 195.887 335.274 195.887H312.332Z" fill="#4CAF4F"/>
<path d="M348.616 352.843C348.669 352.843 349.023 356.243 349.023 356.243H335.635L334.682 352.339L348.616 352.843Z" fill="#4CAF4F"/>
<path opacity="0.2" d="M343.955 348.816C343.927 348.816 343.9 348.807 343.879 348.789C343.858 348.771 343.844 348.746 343.84 348.719C343.769 348.101 337.19 286.904 335.954 268.36C334.612 248.244 331.91 203.622 331.883 203.172C331.882 203.157 331.884 203.143 331.889 203.129C331.893 203.115 331.901 203.102 331.911 203.091C331.921 203.08 331.933 203.072 331.946 203.066C331.96 203.06 331.974 203.057 331.989 203.057C332.018 203.057 332.046 203.068 332.067 203.088C332.089 203.107 332.102 203.134 332.104 203.163C332.104 203.613 334.833 248.199 336.175 268.351C337.411 286.895 343.99 348.048 344.052 348.71C344.054 348.725 344.054 348.74 344.05 348.754C344.046 348.768 344.04 348.782 344.031 348.793C344.022 348.805 344.01 348.815 343.997 348.822C343.984 348.828 343.969 348.833 343.955 348.834V348.816Z" fill="black"/>
<path d="M319.334 114.071C319.334 114.609 318.999 115.042 318.646 115.042C318.292 115.042 318.036 114.609 318.072 114.071C318.107 113.532 318.407 113.099 318.76 113.099C319.114 113.099 319.37 113.541 319.334 114.071Z" fill="#263238"/>
<path d="M313.275 114.071C313.275 114.609 312.931 115.042 312.587 115.042C312.242 115.042 311.977 114.609 312.004 114.071C312.03 113.532 312.348 113.099 312.701 113.099C313.055 113.099 313.311 113.541 313.275 114.071Z" fill="#263238"/>
<path d="M315.183 114.344C314.446 115.989 313.496 117.53 312.357 118.928C313.24 119.811 314.892 119.404 314.892 119.404L315.183 114.344Z" fill="#DF5753"/>
<path d="M315.342 121.656C315.321 121.656 315.301 121.652 315.282 121.644C315.263 121.636 315.246 121.624 315.232 121.609C315.218 121.594 315.207 121.577 315.2 121.557C315.193 121.538 315.19 121.518 315.192 121.497C315.194 121.454 315.213 121.414 315.244 121.384C315.275 121.355 315.316 121.338 315.359 121.338C316.035 121.343 316.703 121.196 317.314 120.909C317.925 120.622 318.464 120.201 318.892 119.678C318.922 119.651 318.962 119.637 319.002 119.637C319.043 119.637 319.082 119.651 319.112 119.678C319.141 119.708 319.157 119.747 319.157 119.789C319.157 119.83 319.141 119.869 319.112 119.899C318.655 120.455 318.079 120.901 317.426 121.205C316.774 121.509 316.062 121.663 315.342 121.656Z" fill="#263238"/>
<path d="M320.412 112.446C320.37 112.467 320.323 112.479 320.275 112.479C320.228 112.479 320.181 112.467 320.138 112.446C319.808 112.232 319.432 112.099 319.041 112.058C318.65 112.017 318.254 112.068 317.886 112.207C317.851 112.225 317.812 112.236 317.772 112.238C317.732 112.241 317.691 112.236 317.654 112.222C317.616 112.209 317.581 112.189 317.551 112.162C317.521 112.135 317.497 112.102 317.48 112.066C317.447 111.987 317.447 111.899 317.478 111.82C317.509 111.741 317.57 111.677 317.648 111.642C318.11 111.454 318.61 111.379 319.107 111.425C319.603 111.472 320.081 111.637 320.5 111.907C320.534 111.93 320.563 111.96 320.585 111.994C320.608 112.028 320.623 112.067 320.631 112.107C320.638 112.147 320.637 112.188 320.629 112.228C320.62 112.268 320.603 112.306 320.58 112.34C320.535 112.39 320.477 112.427 320.412 112.446Z" fill="#263238"/>
<path d="M310.937 110.68C310.89 110.668 310.847 110.644 310.813 110.609C310.784 110.58 310.761 110.546 310.745 110.508C310.729 110.47 310.721 110.429 310.721 110.388C310.721 110.347 310.729 110.307 310.745 110.269C310.761 110.231 310.784 110.196 310.813 110.168C311.152 109.788 311.573 109.492 312.045 109.302C312.517 109.112 313.026 109.033 313.533 109.073C313.574 109.079 313.613 109.093 313.648 109.115C313.682 109.137 313.712 109.166 313.735 109.2C313.759 109.234 313.775 109.272 313.782 109.313C313.79 109.353 313.789 109.395 313.781 109.435C313.762 109.516 313.714 109.588 313.645 109.637C313.577 109.686 313.493 109.708 313.41 109.7C313.008 109.674 312.607 109.741 312.235 109.894C311.863 110.047 311.531 110.282 311.264 110.583C311.224 110.627 311.172 110.66 311.114 110.677C311.056 110.694 310.995 110.695 310.937 110.68Z" fill="#263238"/>
<path d="M344.157 146.771L334.973 144.324C334.973 144.324 325.966 166.498 322.778 167.938C318.451 169.916 307.492 176.768 302.83 180.009C302.574 181.113 302.777 184.036 303.359 184.84C311.307 183.391 326.522 177.537 329.701 174.561C336.951 167.77 344.157 146.771 344.157 146.771Z" fill="#E58A7B"/>
<path d="M337.745 365.4C337.297 365.436 336.851 365.314 336.483 365.056C336.369 364.953 336.284 364.822 336.236 364.677C336.188 364.531 336.179 364.376 336.209 364.226C336.214 364.132 336.245 364.041 336.298 363.963C336.351 363.886 336.424 363.824 336.509 363.784C337.251 363.404 339.326 364.72 339.565 364.87C339.591 364.886 339.611 364.911 339.622 364.939C339.633 364.968 339.635 365 339.626 365.029C339.619 365.06 339.603 365.088 339.582 365.112C339.56 365.135 339.533 365.152 339.503 365.162C338.927 365.303 338.338 365.383 337.745 365.4ZM336.862 364.023C336.795 364.008 336.726 364.008 336.659 364.023C336.625 364.04 336.597 364.066 336.578 364.099C336.56 364.132 336.551 364.17 336.553 364.208C336.53 364.311 336.534 364.418 336.565 364.519C336.596 364.619 336.653 364.71 336.73 364.782C337.074 365.091 337.94 365.126 339.079 364.906C338.401 364.459 337.637 364.158 336.836 364.023H336.862Z" fill="#4CAF4F"/>
<path d="M339.46 365.162C339.437 365.169 339.412 365.169 339.389 365.162C338.727 364.791 337.482 363.334 337.667 362.592C337.695 362.474 337.761 362.369 337.856 362.294C337.95 362.219 338.067 362.177 338.188 362.177C338.307 362.161 338.427 362.171 338.541 362.206C338.656 362.241 338.761 362.3 338.85 362.38C339.583 363.007 339.627 364.932 339.627 365.029C339.632 365.058 339.626 365.088 339.612 365.113C339.597 365.139 339.575 365.159 339.548 365.17C339.518 365.176 339.488 365.173 339.46 365.162ZM338.276 362.468H338.215C338.011 362.468 337.985 362.583 337.976 362.627C337.87 363.06 338.656 364.164 339.31 364.685C339.307 363.939 339.075 363.211 338.647 362.601C338.545 362.511 338.412 362.464 338.276 362.468Z" fill="#4CAF4F"/>
<path d="M314.301 364.296C313.761 364.485 313.173 364.485 312.632 364.296C312.509 364.23 312.405 364.133 312.33 364.016C312.254 363.899 312.209 363.764 312.2 363.625C312.188 363.538 312.2 363.449 312.232 363.367C312.264 363.285 312.317 363.213 312.385 363.157C313.091 362.521 315.979 363.157 316.306 363.281C316.337 363.289 316.364 363.307 316.384 363.333C316.403 363.358 316.413 363.39 316.412 363.422C316.413 363.455 316.405 363.488 316.387 363.516C316.37 363.545 316.345 363.567 316.315 363.581C315.664 363.875 314.991 364.114 314.301 364.296ZM312.862 363.245C312.761 363.266 312.667 363.311 312.588 363.378C312.56 363.399 312.538 363.428 312.526 363.46C312.513 363.493 312.51 363.529 312.517 363.563C312.523 363.656 312.552 363.746 312.601 363.824C312.651 363.903 312.719 363.968 312.8 364.014C313.268 364.261 314.354 364.067 315.758 363.475C314.813 363.236 313.833 363.159 312.862 363.245Z" fill="#4CAF4F"/>
<path d="M316.288 363.581H316.218C315.335 363.422 313.569 362.406 313.516 361.647C313.516 361.47 313.595 361.223 314.019 361.082C314.162 361.031 314.314 361.009 314.466 361.018C314.618 361.027 314.766 361.067 314.902 361.135C315.856 361.603 316.359 363.298 316.386 363.378C316.392 363.405 316.391 363.432 316.383 363.459C316.376 363.485 316.361 363.509 316.341 363.528C316.328 363.55 316.31 363.568 316.288 363.581ZM314.196 361.347H314.107C313.834 361.444 313.834 361.559 313.834 361.594C313.834 362.053 315.114 362.892 316.006 363.175C315.8 362.465 315.366 361.844 314.77 361.409C314.592 361.318 314.388 361.296 314.196 361.347Z" fill="#4CAF4F"/>
<path d="M303.58 179.488L294.369 183.727L293.301 186.376L296.701 188.663C296.701 188.663 303.059 187.975 304.869 183.886L303.58 179.488Z" fill="#E58A7B"/>
<path d="M303.969 184.99C303.763 183.22 303.179 181.515 302.256 179.991L303.713 178.896C304.809 180.652 305.508 182.626 305.762 184.681L303.969 184.99Z" fill="#263238"/>
<path d="M305.54 180.742C305.734 181.048 305.83 181.407 305.814 181.77C305.797 182.132 305.67 182.481 305.448 182.768C305.226 183.056 304.922 183.268 304.575 183.376C304.229 183.484 303.857 183.483 303.512 183.372C303.166 183.262 302.863 183.047 302.643 182.758C302.424 182.469 302.298 182.12 302.284 181.757C302.271 181.394 302.369 181.036 302.566 180.731C302.763 180.427 303.049 180.19 303.385 180.053C303.762 179.861 304.201 179.826 304.604 179.954C305.008 180.083 305.344 180.367 305.54 180.742Z" fill="#263238"/>
<path d="M288.145 187.153L289.372 188.389L297.637 184.857L294.37 183.727L288.145 187.153Z" fill="#E58A7B"/>
<path opacity="0.2" d="M323.635 348.56C323.688 348.56 324.889 351.933 324.889 351.933L312.667 357.073L310.742 353.488L323.635 348.56Z" fill="black"/>
<path opacity="0.2" d="M348.616 352.843C348.669 352.843 349.023 356.243 349.023 356.243H335.635L334.682 352.339L348.616 352.843Z" fill="black"/>
<path d="M346.551 144.227C348.98 152.06 339.487 162.772 339.487 162.772L326.373 157.42C327.927 152.893 329.72 148.451 331.742 144.113C335.769 135.432 344.096 136.324 346.551 144.227Z" fill="#4CAF4F"/>
<path opacity="0.2" d="M346.551 144.227C348.98 152.06 339.487 162.772 339.487 162.772L326.373 157.42C327.927 152.893 329.72 148.451 331.742 144.113C335.769 135.432 344.096 136.324 346.551 144.227Z" fill="black"/>
<path d="M216.246 65.7493H210.604V66.6588H216.246V65.7493Z" fill="#4CAF4F"/>
<path d="M289.29 101.749L288.607 116.905L289.516 116.945L290.199 101.79L289.29 101.749Z" fill="#4CAF4F"/>
<path d="M287.536 69.8291H183.335L173.639 286.816H277.84L287.536 69.8291Z" fill="#4CAF4F"/>
<path opacity="0.56" d="M284.427 72.8137H180.225L170.529 289.801H274.731L284.427 72.8137Z" fill="#FAFAFA"/>
<path opacity="0.07" d="M281.319 75.7898H177.117L167.412 292.777H271.614L281.319 75.7898Z" fill="#4CAF4F"/>
<path d="M269.46 170.428H180.517L179.775 187.03H268.718L269.46 170.428Z" fill="white"/>
<path d="M229.43 158.312H181.055L180.729 165.739H229.103L229.43 158.312Z" fill="#4CAF4F"/>
<path d="M267.454 215.235H178.511L177.77 231.836H266.712L267.454 215.235Z" fill="white"/>
<path opacity="0.47" d="M251.145 254.257H191.335L190.443 274.153H250.253L251.145 254.257Z" fill="#4CAF4F"/>
<path d="M247.144 277.244H187.334C187.308 277.25 187.281 277.25 187.255 277.244C187.246 277.218 187.246 277.19 187.255 277.164L188.138 257.26C188.138 257.246 188.14 257.233 188.146 257.22C188.151 257.208 188.159 257.197 188.169 257.188C188.179 257.179 188.191 257.172 188.204 257.167C188.217 257.163 188.23 257.161 188.244 257.163H248.054C248.065 257.157 248.077 257.154 248.089 257.154C248.101 257.154 248.113 257.157 248.124 257.163C248.131 257.173 248.134 257.185 248.134 257.198C248.134 257.21 248.131 257.222 248.124 257.233L247.259 277.182C247.248 277.202 247.232 277.219 247.211 277.23C247.191 277.241 247.167 277.246 247.144 277.244ZM187.44 277.032H247.038L247.921 257.339H188.323L187.44 277.032Z" fill="white"/>
<path d="M218.984 203.119H179.051L178.725 210.554H218.648L218.984 203.119Z" fill="#4CAF4F"/>
<path d="M250.005 116.799C249.777 121.631 248.059 126.273 245.086 130.09C242.886 132.972 240.055 135.312 236.81 136.93C233.564 138.548 229.992 139.401 226.365 139.424C223.435 139.446 220.531 138.868 217.833 137.726C215.134 136.583 212.698 134.9 210.675 132.781C208.651 130.661 207.083 128.15 206.067 125.402C205.05 122.653 204.608 119.726 204.766 116.799C205.076 110.727 207.695 105.003 212.085 100.798C216.476 96.5927 222.308 94.2236 228.388 94.1752C231.32 94.1479 234.227 94.7222 236.929 95.8626C239.631 97.0031 242.07 98.6854 244.096 100.806C246.122 102.926 247.692 105.439 248.708 108.19C249.724 110.941 250.166 113.871 250.005 116.799Z" fill="white"/>
<path d="M252.133 98.9084C252.076 100.193 251.619 101.428 250.826 102.441C250.24 103.206 249.486 103.828 248.623 104.258C247.76 104.688 246.81 104.915 245.846 104.922C244.912 104.928 243.99 104.705 243.162 104.272C242.334 103.839 241.624 103.211 241.095 102.441C240.394 101.4 240.047 100.162 240.106 98.9084C240.191 97.2963 240.888 95.7774 242.055 94.6616C243.222 93.5458 244.77 92.917 246.385 92.9036C247.163 92.8964 247.935 93.0489 248.653 93.3515C249.371 93.6541 250.019 94.1004 250.557 94.663C251.096 95.2256 251.514 95.8925 251.785 96.6226C252.056 97.3528 252.174 98.1307 252.133 98.9084Z" fill="#4CAF4F"/>
<path d="M190.098 178.729C190.055 179.44 189.745 180.109 189.229 180.601C188.712 181.093 188.029 181.37 187.316 181.378C186.972 181.382 186.631 181.315 186.313 181.182C185.996 181.049 185.709 180.852 185.471 180.604C185.232 180.356 185.047 180.061 184.927 179.739C184.807 179.416 184.755 179.072 184.773 178.729C184.811 178.016 185.121 177.344 185.638 176.852C186.155 176.359 186.841 176.083 187.555 176.079C187.898 176.077 188.239 176.144 188.556 176.278C188.873 176.411 189.159 176.608 189.397 176.856C189.635 177.104 189.82 177.398 189.941 177.72C190.061 178.042 190.115 178.385 190.098 178.729Z" fill="#263238"/>
<path d="M202.001 178.729C201.961 179.441 201.651 180.111 201.134 180.603C200.618 181.095 199.933 181.372 199.22 181.378C198.876 181.381 198.536 181.313 198.219 181.18C197.903 181.046 197.617 180.849 197.38 180.601C197.142 180.353 196.958 180.059 196.839 179.737C196.719 179.415 196.667 179.072 196.685 178.729C196.723 178.017 197.031 177.347 197.547 176.855C198.062 176.362 198.745 176.085 199.458 176.08C199.802 176.075 200.143 176.142 200.461 176.275C200.778 176.408 201.065 176.605 201.303 176.853C201.542 177.101 201.727 177.396 201.847 177.719C201.967 178.041 202.019 178.385 202.001 178.729Z" fill="#263238"/>
<path d="M213.914 178.729C213.873 179.441 213.563 180.111 213.047 180.603C212.53 181.095 211.846 181.372 211.132 181.378C210.788 181.381 210.448 181.313 210.131 181.18C209.814 181.046 209.528 180.85 209.29 180.601C209.051 180.353 208.867 180.059 208.746 179.737C208.626 179.415 208.572 179.072 208.589 178.729C208.629 178.016 208.939 177.346 209.456 176.854C209.973 176.362 210.657 176.085 211.371 176.08C211.715 176.075 212.056 176.142 212.374 176.275C212.691 176.408 212.978 176.605 213.216 176.853C213.455 177.101 213.639 177.396 213.759 177.719C213.879 178.041 213.932 178.385 213.914 178.729Z" fill="#263238"/>
<path d="M188.094 223.536C188.051 224.247 187.741 224.916 187.224 225.408C186.708 225.899 186.025 226.177 185.312 226.185C184.968 226.188 184.627 226.12 184.31 225.987C183.994 225.853 183.707 225.656 183.469 225.408C183.231 225.16 183.046 224.866 182.926 224.544C182.805 224.222 182.752 223.879 182.769 223.536C182.809 222.823 183.119 222.153 183.636 221.661C184.152 221.169 184.837 220.892 185.55 220.886C185.894 220.883 186.235 220.951 186.552 221.084C186.869 221.218 187.155 221.415 187.393 221.663C187.631 221.911 187.816 222.205 187.936 222.527C188.057 222.849 188.11 223.192 188.094 223.536Z" fill="#263238"/>
<path d="M199.997 223.536C199.957 224.246 199.648 224.915 199.134 225.407C198.619 225.899 197.936 226.177 197.224 226.185C196.88 226.189 196.539 226.122 196.221 225.989C195.904 225.856 195.617 225.659 195.379 225.411C195.141 225.163 194.956 224.868 194.836 224.546C194.716 224.223 194.663 223.879 194.681 223.536C194.722 222.823 195.032 222.153 195.548 221.661C196.065 221.169 196.749 220.892 197.463 220.886C197.806 220.883 198.147 220.951 198.463 221.084C198.779 221.218 199.065 221.415 199.303 221.663C199.54 221.911 199.724 222.206 199.844 222.528C199.963 222.85 200.015 223.193 199.997 223.536Z" fill="#263238"/>
<path d="M211.937 223.535C211.897 224.248 211.587 224.918 211.07 225.41C210.553 225.902 209.869 226.179 209.155 226.185C208.812 226.186 208.472 226.118 208.155 225.984C207.839 225.85 207.553 225.653 207.315 225.405C207.078 225.158 206.893 224.864 206.772 224.543C206.651 224.221 206.596 223.878 206.612 223.535C206.654 222.824 206.965 222.155 207.481 221.663C207.997 221.171 208.681 220.894 209.394 220.886C209.738 220.882 210.079 220.949 210.397 221.082C210.714 221.215 211.001 221.412 211.239 221.66C211.478 221.908 211.662 222.203 211.782 222.525C211.902 222.848 211.955 223.192 211.937 223.535Z" fill="#263238"/>
<path d="M223.822 223.536C223.779 224.247 223.469 224.916 222.952 225.408C222.436 225.899 221.753 226.177 221.04 226.185C220.697 226.186 220.356 226.118 220.04 225.984C219.724 225.85 219.438 225.653 219.2 225.405C218.962 225.158 218.777 224.864 218.656 224.543C218.536 224.221 218.481 223.879 218.497 223.536C218.539 222.824 218.85 222.155 219.366 221.663C219.882 221.172 220.566 220.894 221.278 220.886C221.622 220.883 221.963 220.951 222.28 221.084C222.597 221.218 222.883 221.415 223.121 221.663C223.359 221.911 223.544 222.205 223.665 222.527C223.785 222.849 223.838 223.192 223.822 223.536Z" fill="#263238"/>
<path d="M235.78 223.536C235.737 224.247 235.427 224.916 234.91 225.408C234.394 225.899 233.711 226.177 232.998 226.185C232.654 226.189 232.312 226.122 231.995 225.989C231.678 225.856 231.391 225.659 231.152 225.411C230.914 225.163 230.729 224.868 230.609 224.546C230.489 224.223 230.437 223.879 230.455 223.536C230.495 222.823 230.805 222.153 231.322 221.661C231.838 221.169 232.523 220.892 233.236 220.886C233.58 220.883 233.921 220.951 234.238 221.084C234.555 221.218 234.841 221.415 235.079 221.663C235.317 221.911 235.502 222.205 235.622 222.527C235.743 222.849 235.796 223.192 235.78 223.536Z" fill="#263238"/>
<path d="M233.973 115.621C237.669 112.007 237.865 106.213 234.411 102.681C230.956 99.1486 225.16 99.2153 221.464 102.83C217.768 106.444 217.572 112.238 221.026 115.77C224.48 119.302 230.276 119.235 233.973 115.621Z" fill="#4CAF4F"/>
<path d="M245.086 130.089C242.886 132.972 240.055 135.312 236.81 136.93C233.564 138.548 229.992 139.401 226.365 139.423C222.849 139.453 219.38 138.617 216.263 136.99C213.146 135.362 210.477 132.992 208.492 130.089C212.784 125.815 219.575 123.025 227.098 123.025C234.622 123.025 241.174 125.815 245.086 130.089Z" fill="#4CAF4F"/>
<path opacity="0.1" d="M233.973 115.621C237.669 112.007 237.865 106.213 234.411 102.681C230.956 99.1486 225.16 99.2153 221.464 102.83C217.768 106.444 217.572 112.238 221.026 115.77C224.48 119.302 230.276 119.235 233.973 115.621Z" fill="white"/>
<path opacity="0.1" d="M245.086 130.089C242.886 132.972 240.055 135.312 236.81 136.93C233.564 138.548 229.992 139.401 226.365 139.423C222.849 139.453 219.38 138.617 216.263 136.99C213.146 135.362 210.477 132.992 208.492 130.089C212.784 125.815 219.575 123.025 227.098 123.025C234.622 123.025 241.174 125.815 245.086 130.089Z" fill="white"/>
<path d="M115.161 191.03C114.323 192.867 113.439 194.889 112.671 196.849C111.903 198.81 111.117 200.832 110.437 202.845C109.049 206.813 107.991 210.889 107.276 215.032L107.081 216.33C107.063 216.553 107.084 216.777 107.143 216.992C107.352 217.724 107.68 218.416 108.115 219.041C109.249 220.658 110.564 222.139 112.035 223.456C113.587 224.899 115.214 226.258 116.91 227.527C118.605 228.834 120.389 230.106 122.147 231.307L120.495 234.406C116.299 232.578 112.316 230.295 108.618 227.598C106.645 226.159 104.864 224.473 103.32 222.582C102.404 221.456 101.69 220.18 101.209 218.811C100.929 217.956 100.786 217.062 100.785 216.162C100.785 215.95 100.785 215.641 100.785 215.491V215.058L100.873 214.175C101.38 209.574 102.347 205.036 103.761 200.629C104.45 198.457 105.183 196.293 106.022 194.183C106.861 192.072 107.726 190.006 108.795 187.86L115.161 191.03Z" fill="#E58A7B"/>
<path d="M120.9 230.759L127.144 227.598L125.528 234.45C125.528 234.45 121.245 235.651 119.258 233.567L120.9 230.759Z" fill="#E58A7B"/>
<path d="M132.859 228.719L131.199 234.388L125.529 234.45L127.145 227.598L132.859 228.719Z" fill="#E58A7B"/>
<path d="M141.67 157.968C142.004 159.192 142.469 160.376 143.056 161.5C142.885 161.695 142.664 161.84 142.416 161.919C142.169 161.998 141.905 162.009 141.652 161.951L141.67 157.968Z" fill="#DF5753"/>
<path d="M141.485 158.021C141.85 158.021 142.147 157.566 142.147 157.006C142.147 156.445 141.85 155.99 141.485 155.99C141.119 155.99 140.822 156.445 140.822 157.006C140.822 157.566 141.119 158.021 141.485 158.021Z" fill="#263238"/>
<path d="M141.291 156.025L142.633 155.646C142.633 155.646 141.98 156.688 141.291 156.025Z" fill="#263238"/>
<path d="M124.424 164.45C125.228 168.556 126.031 176.089 123.152 178.835C123.152 178.835 124.283 183.003 131.921 183.003C140.319 183.003 135.93 178.835 135.93 178.835C131.347 177.74 131.462 174.34 132.266 171.143L124.424 164.45Z" fill="#E58A7B"/>
<path d="M122.19 155.089C122.614 161.951 122.649 164.865 126.111 168.388C131.33 173.687 139.666 171.673 141.3 164.856C142.774 158.674 141.838 148.502 135.118 145.773C133.643 145.165 132.037 144.944 130.453 145.13C128.868 145.316 127.358 145.903 126.063 146.836C124.769 147.768 123.734 149.016 123.056 150.46C122.379 151.904 122.08 153.498 122.19 155.089Z" fill="#E58A7B"/>
<path d="M122.87 147.371C119.426 148.625 114.834 147.689 116.636 158.312C118.543 169.563 115.611 173.263 115.611 173.263C115.611 173.263 128.672 176.044 142.006 173.095C142.006 173.095 137.935 165.977 139.074 160.732C140.531 154.109 139.383 151.663 139.383 151.663C139.383 151.663 127.709 145.605 122.87 147.371Z" fill="#263238"/>
<path d="M137.441 158.666C137.445 159.97 137.819 161.247 138.519 162.348C139.455 163.779 140.559 163.231 140.832 161.712C141.08 160.379 140.894 158.021 139.702 157.103C138.51 156.184 137.459 157.085 137.441 158.666Z" fill="#E58A7B"/>
<path d="M119.877 148.528C118.888 145.746 123.603 141.463 133.582 143.23C143.561 144.996 143.993 153.305 143.993 153.305L141.98 150.903L142.068 153.429L131.816 155.398L119.877 148.528Z" fill="#263238"/>
<path d="M120.725 179.303C120.667 178.9 120.767 178.489 121.007 178.159C121.246 177.829 121.604 177.606 122.006 177.537C125.114 177.024 132.179 175.982 135.729 176.477C138.378 176.848 139.067 178.384 139.181 179.647C139.199 179.868 139.17 180.091 139.095 180.299C139.02 180.508 138.901 180.698 138.746 180.857C138.591 181.016 138.404 181.14 138.198 181.221C137.991 181.302 137.769 181.337 137.548 181.325L122.2 180.636C121.838 180.618 121.494 180.475 121.225 180.232C120.956 179.989 120.78 179.661 120.725 179.303Z" fill="#4CAF4F"/>
<path opacity="0.6" d="M120.725 179.303C120.667 178.9 120.767 178.489 121.007 178.159C121.246 177.829 121.604 177.606 122.006 177.537C125.114 177.024 132.179 175.982 135.729 176.477C138.378 176.848 139.067 178.384 139.181 179.647C139.199 179.868 139.17 180.091 139.095 180.299C139.02 180.508 138.901 180.698 138.746 180.857C138.591 181.016 138.404 181.14 138.198 181.221C137.991 181.302 137.769 181.337 137.548 181.325L122.2 180.636C121.838 180.618 121.494 180.475 121.225 180.232C120.956 179.989 120.78 179.661 120.725 179.303Z" fill="black"/>
<path d="M129.6 333.574L135.295 337.531L144.824 324.611L139.128 320.664L129.6 333.574Z" fill="#E58A7B"/>
<path d="M116.318 333.318L122.332 336.745L130.765 323.084L124.752 319.657L116.318 333.318Z" fill="#E58A7B"/>
<path d="M144.815 324.611L139.905 331.27L134.209 327.322L139.119 320.664L144.815 324.611Z" fill="#CF6F64"/>
<path d="M124.743 319.657L130.766 323.092L126.421 330.13L120.398 326.695L124.743 319.657Z" fill="#CF6F64"/>
<path d="M134.403 222.432C134.403 222.432 156.639 250.452 152.462 277.253C149.097 298.897 129.581 328.206 129.581 328.206L120.406 323.649C126.874 310.69 132.392 297.279 136.92 283.522C138.316 279.251 138.723 274.719 138.111 270.267C137.499 265.816 135.884 261.561 133.387 257.825C122.12 241.374 104.07 251.167 116.212 222.432H134.403Z" fill="#4CAF4F"/>
<path opacity="0.6" d="M134.403 222.432C134.403 222.432 156.639 250.452 152.462 277.253C149.097 298.897 129.581 328.206 129.581 328.206L120.406 323.649C126.874 310.69 132.392 297.279 136.92 283.522C138.316 279.251 138.723 274.719 138.111 270.267C137.499 265.816 135.884 261.561 133.387 257.825C122.12 241.374 104.07 251.167 116.212 222.432H134.403Z" fill="black"/>
<path opacity="0.4" d="M145.31 240.429L142.078 237.214C142.078 237.47 148.339 276.122 150.096 286.984C151.133 283.811 151.927 280.564 152.472 277.27C154.538 264.121 150.22 250.69 145.31 240.429Z" fill="black"/>
<path d="M144.329 222.432C144.329 222.432 171.104 257.649 171.863 278.763C172.49 296.424 142.722 330.643 142.722 330.643L134.068 325.044C134.068 325.044 151.491 300.742 155.88 280.891C154.185 261.216 118.332 222.432 118.332 222.432H144.329Z" fill="#4CAF4F"/>
<path opacity="0.6" d="M144.329 222.432C144.329 222.432 171.104 257.649 171.863 278.763C172.49 296.424 142.722 330.643 142.722 330.643L134.068 325.044C134.068 325.044 151.491 300.742 155.88 280.891C154.185 261.216 118.332 222.432 118.332 222.432H144.329Z" fill="black"/>
<path d="M111.205 180.407C108.344 181.087 105.598 191.489 105.598 191.489L116.786 198.96C116.786 198.96 120.513 190.73 119.206 187.127C117.855 183.374 114.799 179.55 111.205 180.407Z" fill="#4CAF4F"/>
<path opacity="0.2" d="M113.394 187.109L112.617 196.178L116.776 198.969C117.925 196.383 118.775 193.675 119.311 190.897L113.394 187.109Z" fill="black"/>
<path d="M147.64 180.61C147.64 180.61 150.943 181.766 144.329 222.423H116.194C116.671 210.943 116.68 203.878 111.205 180.407C115.145 179.595 119.138 179.069 123.153 178.835C127.407 178.53 131.677 178.53 135.931 178.835C141.424 179.338 147.64 180.61 147.64 180.61Z" fill="#4CAF4F"/>
<path d="M150.502 187.109C151.138 188.875 151.809 190.774 152.516 192.602C153.222 194.43 153.893 196.311 154.608 198.165L156.772 203.711L157.319 205.097L157.602 205.786L157.735 206.13C157.735 206.192 157.735 206.192 157.735 206.183C157.573 205.956 157.362 205.769 157.116 205.636C156.767 205.43 156.373 205.312 155.968 205.291C155.632 205.281 155.297 205.344 154.988 205.477C154.582 205.662 154.582 205.742 154.591 205.733C154.664 205.674 154.73 205.606 154.785 205.53C155.274 204.888 155.697 204.199 156.048 203.472C156.463 202.66 156.86 201.795 157.258 200.92C158.035 199.154 158.75 197.326 159.465 195.481C160.181 193.635 160.861 191.772 161.523 189.891L163.536 184.257L166.936 185.14C166.265 189.167 165.4 193.087 164.358 197.079C163.854 199.066 163.263 201.035 162.591 203.022C162.256 204.02 161.885 205.009 161.461 206.024C161.019 207.127 160.475 208.185 159.836 209.186C159.601 209.523 159.342 209.841 159.059 210.139C158.608 210.627 158.061 211.014 157.452 211.279C156.912 211.511 156.326 211.619 155.739 211.597C155.081 211.572 154.439 211.381 153.876 211.04C153.21 210.625 152.658 210.052 152.268 209.371C152.136 209.142 152.021 208.912 151.942 208.744L151.774 208.409L151.438 207.72L150.767 206.351C149.884 204.514 149.001 202.66 148.233 200.797C147.464 198.933 146.652 197.044 145.893 195.145C145.133 193.246 144.453 191.348 143.809 189.299L150.502 187.109Z" fill="#E58A7B"/>
<path d="M147.64 180.61C151.023 181.413 154.829 191.41 154.829 191.41L144.77 199.967C144.77 199.967 138.262 189.07 139.578 185.475C140.947 181.731 143.225 179.559 147.64 180.61Z" fill="#4CAF4F"/>
<path d="M165.133 181.095L168.666 178.146L171.121 181.97L169.31 185.158C169.31 185.158 166.432 187.807 163.888 186.456C163.485 185.548 163.388 184.534 163.613 183.567C163.837 182.6 164.371 181.732 165.133 181.095Z" fill="#E58A7B"/>
<path d="M175.043 178.155L174.778 179.117L169.188 180.053L168.641 178.146L175.043 178.155Z" fill="#E58A7B"/>
<path d="M143.411 331.093L133.326 324.576L135.136 321.432L146.466 328.4L143.411 331.093Z" fill="#4CAF4F"/>
<path d="M126.279 336.285C125.394 336.177 124.544 335.876 123.788 335.402C123.757 335.391 123.73 335.371 123.711 335.344C123.692 335.317 123.682 335.285 123.682 335.252C123.682 335.219 123.692 335.187 123.711 335.16C123.73 335.133 123.757 335.113 123.788 335.102C124.062 335.014 126.438 334.281 127.126 334.846C127.204 334.91 127.263 334.994 127.297 335.089C127.331 335.184 127.339 335.286 127.321 335.385C127.308 335.544 127.256 335.697 127.168 335.83C127.079 335.963 126.959 336.071 126.817 336.144C126.652 336.234 126.467 336.283 126.279 336.285ZM124.292 335.314C125.396 335.879 126.279 336.082 126.702 335.87C126.795 335.819 126.872 335.745 126.928 335.656C126.984 335.566 127.016 335.464 127.02 335.358C127.02 335.217 127.02 335.155 126.941 335.12C126.57 334.819 125.245 335.049 124.274 335.314H124.292Z" fill="#263238"/>
<path d="M123.851 335.464C123.804 335.463 123.76 335.444 123.727 335.411C123.714 335.387 123.707 335.359 123.707 335.332C123.707 335.304 123.714 335.277 123.727 335.252C123.727 335.173 124.301 333.256 125.202 332.824C125.317 332.771 125.442 332.744 125.568 332.744C125.695 332.744 125.82 332.771 125.935 332.824C126.059 332.863 126.166 332.942 126.24 333.05C126.313 333.157 126.349 333.286 126.341 333.415C126.279 334.21 124.663 335.305 123.921 335.491L123.851 335.464ZM125.564 333.053C125.478 333.056 125.394 333.077 125.317 333.115C124.769 333.38 124.319 334.413 124.098 335.04C124.875 334.714 125.944 333.848 125.979 333.362C125.979 333.283 125.979 333.186 125.776 333.098C125.71 333.062 125.638 333.038 125.564 333.027V333.053Z" fill="#263238"/>
<path d="M138.881 340.1C137.883 340.1 136.496 338.82 135.737 338.034C135.717 338.007 135.707 337.975 135.707 337.941C135.707 337.908 135.717 337.876 135.737 337.849C135.754 337.82 135.779 337.797 135.809 337.781C135.838 337.766 135.871 337.759 135.905 337.76C136.258 337.76 139.322 338.219 139.755 339.085C139.801 339.162 139.825 339.251 139.825 339.341C139.825 339.431 139.801 339.519 139.755 339.597C139.69 339.732 139.592 339.848 139.47 339.934C139.348 340.021 139.206 340.075 139.057 340.092L138.881 340.1ZM136.32 338.158C137.432 339.235 138.413 339.835 138.969 339.765C139.066 339.752 139.159 339.716 139.239 339.659C139.319 339.602 139.384 339.526 139.428 339.438C139.448 339.408 139.458 339.373 139.458 339.337C139.458 339.3 139.448 339.265 139.428 339.235C139.198 338.758 137.565 338.352 136.32 338.158Z" fill="#263238"/>
<path d="M136.417 338.114C136.219 338.119 136.021 338.104 135.825 338.069C135.798 338.065 135.772 338.054 135.751 338.037C135.729 338.02 135.712 337.998 135.702 337.972C135.689 337.946 135.682 337.917 135.682 337.888C135.682 337.859 135.689 337.83 135.702 337.804C135.755 337.743 136.947 336.303 138.077 336.206C138.397 336.181 138.714 336.283 138.96 336.489C139.305 336.789 139.287 337.054 139.199 337.222C138.978 337.822 137.45 338.114 136.417 338.114ZM136.187 337.787C137.176 337.84 138.757 337.513 138.96 337.08C138.96 337.08 139.031 336.939 138.801 336.745C138.71 336.665 138.603 336.605 138.488 336.569C138.372 336.533 138.251 336.52 138.13 336.533C137.369 336.745 136.691 337.186 136.187 337.796V337.787Z" fill="#263238"/>
<path d="M124.089 334.511L116.6 332.391C116.471 332.352 116.332 332.362 116.21 332.419C116.088 332.476 115.991 332.576 115.938 332.7L113.412 338.378C113.353 338.524 113.325 338.68 113.331 338.837C113.336 338.994 113.375 339.148 113.444 339.289C113.513 339.43 113.612 339.555 113.732 339.655C113.853 339.755 113.994 339.829 114.145 339.871C116.795 340.56 118.066 340.754 121.36 341.699C123.391 342.264 126.288 343.315 129.087 344.109C131.886 344.904 132.822 342.176 131.736 341.593C126.826 338.997 126.438 337.177 125.095 335.235C124.855 334.883 124.499 334.627 124.089 334.511Z" fill="#4CAF4F"/>
<path d="M135.941 337.001L129.547 332.585C129.439 332.506 129.305 332.47 129.172 332.483C129.038 332.496 128.914 332.558 128.823 332.656L124.585 337.213C124.481 337.33 124.404 337.469 124.358 337.619C124.313 337.769 124.3 337.926 124.32 338.082C124.34 338.237 124.393 338.386 124.475 338.52C124.557 338.653 124.667 338.767 124.796 338.855C127.048 340.365 128.214 340.975 131.031 342.926C132.797 344.127 136.214 346.794 138.599 348.454C140.983 350.114 142.758 347.836 141.91 346.935C138.113 342.882 137.283 340.339 136.656 338.034C136.547 337.616 136.294 337.25 135.941 337.001Z" fill="#4CAF4F"/>
<path d="M130.756 328.788L119.232 323.057L120.425 319.931L132.734 325.971L130.756 328.788Z" fill="#4CAF4F"/>
<path d="M115.771 220.772L114.8 223.315C114.703 223.509 114.932 223.712 115.259 223.712H144.471C144.727 223.712 144.939 223.589 144.957 223.43L145.204 220.904C145.204 220.736 145.001 220.586 144.727 220.586H116.23C116.145 220.578 116.058 220.591 115.978 220.623C115.898 220.655 115.827 220.706 115.771 220.772Z" fill="#4CAF4F"/>
<path opacity="0.4" d="M115.771 220.772L114.8 223.315C114.703 223.509 114.932 223.712 115.259 223.712H144.471C144.727 223.712 144.939 223.589 144.957 223.43L145.204 220.904C145.204 220.736 145.001 220.586 144.727 220.586H116.23C116.145 220.578 116.058 220.591 115.978 220.623C115.898 220.655 115.827 220.706 115.771 220.772Z" fill="white"/>
<path d="M120.371 223.959H119.602C119.452 223.959 119.337 223.88 119.346 223.783L119.708 220.507C119.708 220.418 119.85 220.339 120 220.339H120.768C120.918 220.339 121.033 220.418 121.024 220.507L120.662 223.783C120.653 223.88 120.521 223.959 120.371 223.959Z" fill="#4CAF4F"/>
<path d="M138.385 223.959H137.626C137.476 223.959 137.361 223.88 137.37 223.783L137.723 220.507C137.723 220.418 137.873 220.339 138.023 220.339H138.783C138.933 220.339 139.056 220.418 139.039 220.507L138.685 223.783C138.641 223.88 138.544 223.959 138.385 223.959Z" fill="#4CAF4F"/>
<g style="mix-blend-mode:multiply">
<path d="M119.7 373.507C132.766 373.507 143.358 372.74 143.358 371.793C143.358 370.847 132.766 370.08 119.7 370.08C106.635 370.08 96.043 370.847 96.043 371.793C96.043 372.74 106.635 373.507 119.7 373.507Z" fill="#F5F5F5"/>
</g>
<path d="M134.113 369.374C129.927 368.155 125.282 366.592 122.474 364.959C122.395 364.906 122.306 364.879 122.227 364.835V345.884H130.695C131.338 345.846 131.942 345.564 132.384 345.096C132.826 344.627 133.072 344.007 133.072 343.363C133.072 342.719 132.826 342.1 132.384 341.631C131.942 341.162 131.338 340.88 130.695 340.842H122.271V254.461H117.184V340.842H108.769C108.425 340.822 108.081 340.872 107.757 340.989C107.434 341.107 107.138 341.289 106.887 341.525C106.637 341.762 106.437 342.046 106.301 342.362C106.164 342.679 106.094 343.019 106.094 343.363C106.094 343.708 106.164 344.048 106.301 344.364C106.437 344.68 106.637 344.965 106.887 345.201C107.138 345.437 107.434 345.62 107.757 345.737C108.081 345.855 108.425 345.905 108.769 345.884H117.184V364.809C117.105 364.809 117.026 364.879 116.946 364.932C114.094 366.592 109.484 368.155 105.298 369.348C105.016 369.433 104.773 369.617 104.614 369.866C104.455 370.115 104.391 370.413 104.432 370.705C104.474 370.998 104.619 371.265 104.841 371.46C105.063 371.655 105.347 371.764 105.643 371.767H133.768C134.051 371.748 134.318 371.632 134.525 371.44C134.733 371.248 134.868 370.99 134.908 370.71C134.948 370.43 134.891 370.144 134.747 369.901C134.602 369.658 134.378 369.472 134.113 369.374Z" fill="#E0E0E0"/>
<path d="M135.41 245.665H104.008C101.482 245.665 99.4336 247.713 99.4336 250.24V259.574C99.4336 262.1 101.482 264.148 104.008 264.148H135.41C137.936 264.148 139.984 262.1 139.984 259.574V250.24C139.984 247.713 137.936 245.665 135.41 245.665Z" fill="#4CAF4F"/>
<path d="M103.717 264.157V265.764C103.717 267.089 105.156 268.166 106.922 268.166H132.531C134.297 268.166 135.737 267.089 135.737 265.764V264.157H103.717Z" fill="#4CAF4F"/>
<path opacity="0.3" d="M103.717 264.157V265.764C103.717 267.089 105.156 268.166 106.922 268.166H132.531C134.297 268.166 135.737 267.089 135.737 265.764V264.157H103.717Z" fill="white"/>
</svg>
